PathFileType	4	(X/Y/Z)	57_2_19_p1_0-291_filt_butterworth.trc
DataRate	CameraRate	NumFrames	NumMarkers	Units	OrigDataRate	OrigDataStartFrame	OrigNumFrames
59.0	59.0	5	27	m	59.0	254	291
Frame#	Time	RHip			RKnee			RAnkle			RBigToe			RSmallToe			RHeel			LHip			LKnee			LAnkle			LBigToe			LSmallToe			LHeel			Neck			Head			Nose			RShoulder			RElbow			RWrist			RThumb			RIndex			RPinky			LShoulder			LElbow			LWrist			LThumb			LIndex			LPinky			
		X1	Y1	Z1	X2	Y2	Z2	X3	Y3	Z3	X4	Y4	Z4	X5	Y5	Z5	X6	Y6	Z6	X7	Y7	Z7	X8	Y8	Z8	X9	Y9	Z9	X10	Y10	Z10	X11	Y11	Z11	X12	Y12	Z12	X13	Y13	Z13	X14	Y14	Z14	X15	Y15	Z15	X16	Y16	Z16	X17	Y17	Z17	X18	Y18	Z18	X19	Y19	Z19	X20	Y20	Z20	X21	Y21	Z21	X22	Y22	Z22	X23	Y23	Z23	X24	Y24	Z24	X25	Y25	Z25	X26	Y26	Z26	X27	Y27	Z27	
254	4.305084745762712	0.24190988442032718	0.5742605639895312	0.8354441357891074	0.25385866679703595	0.15733886467794395	0.7960837057654432	0.2565967864687531	-0.2777863406957405	0.8126229553889383	0.23717256284262825	-0.24393310188415177	0.62419583733069	0.305147126141051	-0.25451733488038425	0.6629263741189426	0.24808985391895444	-0.38090535389593966	0.9050140283237885	0.02472192135258591	0.5459560695093215	0.8520221443880818	0.049111681562556866	0.12804414105055562	0.8250438692567102	0.0835779120000629	-0.2917147888529993	0.825877447152567	0.08617749028089033	-0.242014869998973	0.6306995419825991	0.03660377013227542	-0.2700254812122123	0.6707257489011744	0.0991195114565387	-0.3612853011914683	0.8700641549361728	0.0636670179071814	1.1133333065339652	0.8827249458423272	0.023539287930535967	1.3451108110531866	0.8920477948539647	0.023451295273277536	1.2360887036224113	0.8068368408089905	0.2475651394562665	1.0681038854168272	0.869091248894778	0.3626450268470406	0.8992547414188616	0.8072971836268992	0.23181264749339087	0.8924955309712425	0.5649531417328895	0.12663048936581978	0.8548934424284954	0.5388823298611756	0.12927520049101082	0.853339580148268	0.5230975908948154	0.19037013572282985	0.8296031538330477	0.5149532846742365	-0.057421893900725995	1.0151427765648533	0.8666421816655393	-0.07011637225502827	0.7828934929200645	0.8299336603748622	0.004905852886706642	0.7452569277509187	0.5898780410412172	0.054105342765352574	0.7549204007952675	0.499047660234054	0.05120264342787361	0.7316713729916466	0.4745139352733926	0.03528161867869925	0.6885275035157857	0.5108991367614968	
255	4.322033898305085	0.2408333632045764	0.57137476174978	0.8359217998019912	0.2528135355617399	0.15722244011311248	0.7950335443383856	0.25636403197251345	-0.2780757226851978	0.812569446243332	0.2371810446927069	-0.24380083071597172	0.6241267331861811	0.30596149359226754	-0.2542590624873971	0.6626542477917063	0.24820551429472257	-0.38156979840144056	0.9052067993559784	0.023751588597780166	0.5442236772636891	0.8512373621555567	0.048488427372362086	0.1257825140868341	0.8261226681566431	0.08360729560698738	-0.2922491336231592	0.8257402168979399	0.08608547075577291	-0.24209143178735776	0.6306693069858207	0.037605490766658645	-0.26818734138407685	0.6677107403907969	0.09894644087008986	-0.36171936285896233	0.8699117273680297	0.06649845030786242	1.115819487345835	0.8831983462490511	0.03250981009574964	1.3476283679239374	0.8919833280609595	0.033535457899132926	1.2364607342055267	0.8130858244045724	0.2493051773168494	1.0665147985603536	0.8685546708870937	0.36162368611641466	0.8909878027554136	0.8012544317765162	0.22907427933856478	0.8865712991465855	0.5620876917702116	0.12471712085104834	0.8518667978047247	0.5375858777238872	0.12733937025845252	0.847003873031516	0.5213047530657031	0.18632108238482087	0.824130142944862	0.5091337073024941	-0.054077345004205656	1.0183901112598641	0.8631875682171359	-0.06891323164557142	0.7812622795644643	0.8264241473220479	0.004132121061058706	0.7261106278167927	0.5893120362186195	0.05320550534445375	0.7252252445345787	0.5002295304817493	0.047731957524854235	0.7011476456527612	0.4765173281358831	0.033370415753871785	0.6644703303971473	0.5071745563164576	
256	4.338983050847458	0.23978631348687227	0.5686474676432884	0.8362972005773142	0.2518016550116825	0.15717490390123223	0.7940912718408977	0.25605133598849056	-0.278543953064352	0.8127682252348224	0.2371250213870904	-0.24347782007879784	0.623780135660188	0.30659624636546856	-0.25411662108597055	0.662512050926527	0.248212117210788	-0.3820639555367866	0.9053860323924469	0.023012782053024837	0.5425597102885011	0.8502873972212932	0.04811890723170223	0.1233240899442985	0.8273306153878731	0.0835170733493234	-0.2925227245192463	0.8255700352139509	0.0859703231746127	-0.24194869054830725	0.6306166481365022	0.03830198528574037	-0.26702468659834094	0.6655120023594098	0.09865859767427665	-0.3620273673740063	0.8696121574340371	0.070227987905951	1.1179115664545096	0.883882459064931	0.03877522663308646	1.3497136123643578	0.891959410290045	0.04361488223544466	1.2373325112518356	0.815914822725067	0.2510320399862176	1.0649623395542402	0.8680955186763792	0.36099932461240447	0.8822161935057318	0.7946380813456566	0.22491378997257538	0.877991960946233	0.5599021458355817	0.1225617017532889	0.8445963769187849	0.5381478948239529	0.12549524452993238	0.8369084491488591	0.5198929846798912	0.1800705456346528	0.8150565999964289	0.5054885993999155	-0.05075639088501838	1.0209567424147967	0.8603104908456458	-0.0674796883491726	0.7793042857926292	0.8211562917807584	0.005908947230141553	0.7073987384035524	0.5874961958283195	0.057263652799049755	0.6943447751004854	0.5034192432280242	0.048960037128692555	0.6721181700483851	0.4789440667757052	0.0346718419162252	0.6411708341179441	0.5055094369698606	
257	4.3559322033898304	0.2389098859071997	0.566320800423291	0.8366314391213507	0.2510244590427836	0.15693066786447812	0.7934135681659252	0.2556756776564563	-0.279203968425339	0.8132225997798523	0.23703570401759885	-0.243073904664334	0.6233414805702242	0.3069274044157472	-0.25407826818485296	0.6624725402001821	0.2480900295103583	-0.38255572057778026	0.9058811358172925	0.022539936207686545	0.5410389815382044	0.849379355429622	0.04792822065132674	0.12083544703533261	0.8285214512811848	0.08326879837504057	-0.2924805335504085	0.825356457197071	0.08604587567244962	-0.24179651310506878	0.6306923457960577	0.03845881106717508	-0.2670074307763055	0.664805319498999	0.09827958844748083	-0.3622206656216599	0.8692034308658204	0.074748777454423	1.1194231147381764	0.8847577826393804	0.043668945016598945	1.3516736045892466	0.8913513608905922	0.0529331404747624	1.2385428284549729	0.8148276877991307	0.25268307893149444	1.063725415968873	0.8678397600367025	0.3606022219994135	0.8737237258148124	0.7881471891194947	0.21961227202331768	0.8655784160995315	0.5604226785591127	0.11984397435430243	0.8312544461457899	0.5426839537326316	0.12337541203577884	0.8219253727697398	0.521517164144883	0.17322924524344585	0.8016665351759968	0.5052817744988476	-0.04790821868747948	1.0230003966146868	0.8583490340563029	-0.06552451022283955	0.777038610632712	0.815103577824855	0.009387355442950053	0.6879222755704042	0.5886141575165271	0.06530725399733348	0.6634535434363088	0.510743272092256	0.05474530358207048	0.6446215512342606	0.4843271716817357	0.03815248658891972	0.6185070672981858	0.5075306953443113	
258	4.372881355932203	0.23840289629276612	0.5644578010516115	0.837037395379151	0.2506184649998015	0.1563271811423793	0.7931100817757426	0.2552310532559273	-0.27999771670071083	0.8139703316255467	0.23699048738436018	-0.24286639013390462	0.6230288568542545	0.3070047378228267	-0.2540807830289159	0.6624342174065381	0.2478926334084038	-0.3832368392562842	0.9069420699031048	0.02231607122854051	0.5396962834287652	0.8487167910165825	0.047842903345670845	0.11859837630847875	0.829570789154227	0.08285861374375841	-0.2921613926101839	0.8251236427268354	0.0864596223215483	-0.2417478410678201	0.6309427687256133	0.03799923972643088	-0.26823666819854464	0.6658198415822919	0.09783422691530116	-0.36232302329731514	0.8687383746570384	0.07994385372115935	1.1203373793236213	0.8856876314549225	0.04908972211685688	1.3538186847150673	0.8895924751002544	0.06105514317342584	1.2399131862621706	0.8103698022641539	0.2542530952951806	1.0629983430782426	0.8678579178571584	0.35991436026913487	0.8664426293500476	0.7819809376132725	0.21351225211684666	0.8489127275006143	0.5646499740718682	0.11611337772551969	0.8121208642437397	0.5517670090832557	0.12031643232297441	0.801828713724679	0.5279095688020334	0.16632346032005843	0.7839666268696543	0.5092352394043824	-0.04554485995932819	1.0246337452781245	0.8573399321900309	-0.06293205810387616	0.7749328993719786	0.8088514250957948	0.013911498814168817	0.6676423941771037	0.5953355254530706	0.07554024656066945	0.6351327705777622	0.5230279502562012	0.0637406620449898	0.6191297203050072	0.49484854432764247	0.04388957335167554	0.5970898830382719	0.5143674247161117	
